<svg width="141" height="54" viewBox="0 0 141 54" fill="none" xmlns="http://www.w3.org/2000/svg">
<path d="M0.539943 30.2511H140.46C140.596 30.2391 140.722 30.1767 140.813 30.0762C140.905 29.9757 140.956 29.8443 140.956 29.7081C140.956 29.5718 140.905 29.4405 140.813 29.34C140.722 29.2394 140.596 29.177 140.46 29.165H0.539943C0.40447 29.177 0.278404 29.2394 0.186578 29.34C0.0947518 29.4405 0.0438232 29.5718 0.0438232 29.7081C0.0438232 29.8443 0.0947518 29.9757 0.186578 30.0762C0.278404 30.1767 0.40447 30.2391 0.539943 30.2511Z" fill="#737373"/>
<path d="M0.539921 53.9161H140.46C140.603 53.9161 140.741 53.8591 140.842 53.7577C140.943 53.6562 141 53.5186 141 53.3751C141 53.2317 140.943 53.0941 140.842 52.9926C140.741 52.8912 140.603 52.8342 140.46 52.8342H0.539921C0.396725 52.8342 0.259394 52.8912 0.158139 52.9926C0.0568845 53.0941 0 53.2317 0 53.3751C0 53.5186 0.0568845 53.6562 0.158139 53.7577C0.259394 53.8591 0.396725 53.9161 0.539921 53.9161Z" fill="#737373"/>
<path d="M7.60722 36.2216V36.5256C7.26263 36.5357 6.99913 36.5763 6.8167 36.6472C6.64441 36.708 6.52786 36.8296 6.46705 37.0121C6.40624 37.1844 6.37584 37.458 6.37584 37.833V45.3733C6.37584 45.7381 6.40624 46.0118 6.46705 46.1942C6.52786 46.3766 6.64441 46.4983 6.8167 46.5591C6.99913 46.6097 7.26263 46.6351 7.60722 46.6351H8.71698C9.19331 46.6351 9.57844 46.5844 9.87235 46.4831C10.1764 46.3817 10.4146 46.2246 10.5869 46.0118C10.7693 45.7888 10.9061 45.4949 10.9973 45.1301C11.0885 44.7652 11.1595 44.3193 11.2101 43.7923H11.5598C11.5294 44.1064 11.5142 44.522 11.5142 45.0388C11.5142 45.2314 11.5193 45.5101 11.5294 45.875C11.5497 46.2297 11.5801 46.5996 11.6206 46.9847C11.1037 46.9645 10.521 46.9543 9.87235 46.9543C9.22372 46.9442 8.64603 46.9391 8.13929 46.9391C7.91633 46.9391 7.62749 46.9391 7.27277 46.9391C6.92818 46.9391 6.5532 46.9442 6.1478 46.9543C5.74241 46.9543 5.33195 46.9594 4.91642 46.9695C4.5009 46.9695 4.10564 46.9746 3.73065 46.9847V46.6807C4.07524 46.6604 4.33367 46.6199 4.50596 46.5591C4.68839 46.4983 4.81001 46.3766 4.87082 46.1942C4.93163 46.0118 4.96203 45.7381 4.96203 45.3733V37.833C4.96203 37.458 4.93163 37.1844 4.87082 37.0121C4.81001 36.8296 4.68839 36.708 4.50596 36.6472C4.33367 36.5763 4.07524 36.5357 3.73065 36.5256V36.2216C3.94348 36.2317 4.22219 36.2418 4.56677 36.252C4.91136 36.2621 5.28128 36.2672 5.67654 36.2672C6.03125 36.2672 6.3809 36.2621 6.72549 36.252C7.08021 36.2418 7.37412 36.2317 7.60722 36.2216Z" fill="#737373"/>
<path d="M14.629 47.0911C14.2134 47.0911 13.8537 47.0151 13.5496 46.8631C13.2456 46.701 13.0125 46.478 12.8503 46.1942C12.6983 45.9104 12.6223 45.5811 12.6223 45.2061C12.6223 44.7601 12.7236 44.3953 12.9263 44.1115C13.1392 43.8277 13.4077 43.5997 13.732 43.4274C14.0564 43.2551 14.3959 43.1132 14.7506 43.0017C15.1154 42.8801 15.46 42.7686 15.7843 42.6673C16.1087 42.5558 16.3722 42.4291 16.5749 42.2872C16.7877 42.1454 16.8941 41.9579 16.8941 41.7248V40.7822C16.8941 40.3566 16.8282 40.0322 16.6965 39.8093C16.5749 39.5863 16.4076 39.4394 16.1948 39.3684C15.982 39.2873 15.7438 39.2468 15.4803 39.2468C15.2269 39.2468 14.9533 39.2823 14.6594 39.3532C14.3756 39.4242 14.1476 39.5711 13.9753 39.7941C14.1678 39.8346 14.3351 39.936 14.477 40.0981C14.6188 40.2603 14.6898 40.468 14.6898 40.7214C14.6898 40.9748 14.6087 41.1775 14.4465 41.3295C14.2844 41.4714 14.0766 41.5423 13.8233 41.5423C13.5293 41.5423 13.3115 41.4511 13.1696 41.2687C13.0378 41.0761 12.9719 40.8633 12.9719 40.6302C12.9719 40.3667 13.0378 40.1539 13.1696 39.9917C13.3013 39.8296 13.4685 39.6775 13.6712 39.5356C13.9043 39.3735 14.2033 39.2367 14.5682 39.1252C14.9432 39.0036 15.3638 38.9428 15.83 38.9428C16.2455 38.9428 16.6002 38.9934 16.8941 39.0948C17.188 39.186 17.4313 39.3228 17.6238 39.5052C17.8873 39.7485 18.0596 40.0475 18.1407 40.4022C18.2218 40.7468 18.2623 41.1623 18.2623 41.6488V45.875C18.2623 46.1283 18.2978 46.3108 18.3687 46.4222C18.4498 46.5337 18.5714 46.5895 18.7336 46.5895C18.8451 46.5895 18.9515 46.5641 19.0528 46.5135C19.1542 46.4628 19.2758 46.3817 19.4177 46.2702L19.5849 46.5287C19.3721 46.6908 19.1694 46.8276 18.9768 46.9391C18.7842 47.0405 18.5258 47.0911 18.2015 47.0911C17.9076 47.0911 17.6644 47.0405 17.4718 46.9391C17.2792 46.8378 17.1323 46.6908 17.0309 46.4983C16.9397 46.2956 16.8941 46.0422 16.8941 45.7381C16.6205 46.1942 16.2911 46.5337 15.906 46.7567C15.531 46.9797 15.1053 47.0911 14.629 47.0911ZM15.1763 46.4831C15.5107 46.4831 15.8198 46.3868 16.1036 46.1942C16.3975 46.0017 16.661 45.7128 16.8941 45.3277V42.3481C16.7725 42.5203 16.5951 42.6673 16.362 42.7889C16.1289 42.9004 15.8756 43.017 15.6019 43.1386C15.3283 43.2501 15.0648 43.3869 14.8114 43.549C14.5682 43.7011 14.3655 43.9037 14.2033 44.1571C14.0412 44.4105 13.9601 44.7399 13.9601 45.1453C13.9601 45.5507 14.0665 45.875 14.2793 46.1182C14.5023 46.3614 14.8013 46.4831 15.1763 46.4831Z" fill="#737373"/>
<path d="M23.8469 36.2216C24.0597 36.2317 24.3384 36.2418 24.683 36.252C25.0276 36.2621 25.3671 36.2672 25.7015 36.2672C26.1779 36.2672 26.6339 36.2621 27.0697 36.252C27.5055 36.2418 27.8146 36.2368 27.9971 36.2368C29.2234 36.2368 30.1406 36.5155 30.7487 37.0729C31.3568 37.6303 31.6608 38.3499 31.6608 39.2316C31.6608 39.5965 31.6 39.9816 31.4784 40.387C31.3568 40.7822 31.1439 41.1521 30.8399 41.4967C30.546 41.8312 30.1406 42.1048 29.6237 42.3176C29.1068 42.5305 28.4531 42.6369 27.6626 42.6369H26.2032V42.3329H27.5106C28.2302 42.3329 28.7774 42.196 29.1524 41.9224C29.5376 41.6488 29.796 41.289 29.9277 40.843C30.0696 40.3971 30.1406 39.9157 30.1406 39.3988C30.1406 38.436 29.948 37.7164 29.5629 37.2401C29.1879 36.7638 28.5393 36.5256 27.617 36.5256C27.1508 36.5256 26.8468 36.6118 26.7049 36.784C26.563 36.9563 26.492 37.306 26.492 37.833V45.3733C26.492 45.7381 26.5275 46.0118 26.5985 46.1942C26.6795 46.3766 26.8316 46.4983 27.0545 46.5591C27.2775 46.6199 27.6018 46.6604 28.0275 46.6807V46.9847C27.764 46.9645 27.4295 46.9543 27.0241 46.9543C26.6187 46.9442 26.2083 46.9391 25.7927 46.9391C25.3975 46.9391 25.0276 46.9442 24.683 46.9543C24.3384 46.9543 24.0597 46.9645 23.8469 46.9847V46.6807C24.1914 46.6604 24.4499 46.6199 24.6222 46.5591C24.8046 46.4983 24.9262 46.3766 24.987 46.1942C25.0478 46.0118 25.0782 45.7381 25.0782 45.3733V37.833C25.0782 37.458 25.0478 37.1844 24.987 37.0121C24.9262 36.8296 24.8046 36.708 24.6222 36.6472C24.4499 36.5763 24.1914 36.5357 23.8469 36.5256V36.2216Z" fill="#737373"/>
<path d="M34.275 35.355C34.5385 35.355 34.7665 35.4513 34.9591 35.6439C35.1516 35.8364 35.2479 36.0645 35.2479 36.328C35.2479 36.5915 35.1516 36.8195 34.9591 37.0121C34.7665 37.2046 34.5385 37.3009 34.275 37.3009C34.0115 37.3009 33.7834 37.2046 33.5909 37.0121C33.3983 36.8195 33.302 36.5915 33.302 36.328C33.302 36.0645 33.3983 35.8364 33.5909 35.6439C33.7834 35.4513 34.0115 35.355 34.275 35.355ZM35.0655 38.9884V45.5709C35.0655 45.9966 35.1516 46.2854 35.3239 46.4374C35.5064 46.5895 35.8053 46.6655 36.2209 46.6655V46.9847C36.0486 46.9746 35.7851 46.9645 35.4304 46.9543C35.0858 46.9341 34.7361 46.9239 34.3814 46.9239C34.0368 46.9239 33.6872 46.9341 33.3325 46.9543C32.9777 46.9645 32.7142 46.9746 32.5419 46.9847V46.6655C32.9575 46.6655 33.2514 46.5895 33.4237 46.4374C33.6061 46.2854 33.6973 45.9966 33.6973 45.5709V40.8126C33.6973 40.3566 33.6162 40.0221 33.4541 39.8093C33.2919 39.5863 32.9879 39.4748 32.5419 39.4748V39.1556C32.8662 39.186 33.1804 39.2012 33.4845 39.2012C33.7784 39.2012 34.0571 39.186 34.3206 39.1556C34.5942 39.115 34.8425 39.0593 35.0655 38.9884Z" fill="#737373"/>
<path d="M43.2286 39.0796L38.8352 46.7567H40.5074C40.9128 46.7567 41.2625 46.6756 41.5564 46.5135C41.8604 46.3513 42.1036 46.0929 42.2861 45.7381C42.4685 45.3733 42.58 44.897 42.6205 44.3091H42.9702C42.9702 44.9578 42.9752 45.505 42.9854 45.951C42.9955 46.3969 43.0107 46.7618 43.031 47.0455C42.5851 47.0253 42.1189 47.0101 41.6324 46.9999C41.156 46.9898 40.6797 46.9847 40.2034 46.9847C39.6966 46.9847 39.1798 46.9898 38.6527 46.9999C38.1257 47.0202 37.619 47.0405 37.1325 47.0607L41.526 39.3836H39.8537C39.4078 39.3836 39.0328 39.4647 38.7288 39.6269C38.4348 39.789 38.2068 40.0525 38.0447 40.4174C37.8926 40.7721 37.7913 41.2434 37.7406 41.8312H37.391C37.391 41.1724 37.3859 40.6251 37.3758 40.1893C37.3656 39.7434 37.3504 39.3786 37.3302 39.0948C37.7761 39.115 38.2372 39.1303 38.7136 39.1404C39.2 39.1505 39.6814 39.1556 40.1578 39.1556C40.6645 39.1556 41.1814 39.1505 41.7084 39.1404C42.2354 39.1201 42.7421 39.0998 43.2286 39.0796Z" fill="#737373"/>
<path d="M50.4586 39.0796L46.0651 46.7567H47.7374C48.1428 46.7567 48.4924 46.6756 48.7863 46.5135C49.0904 46.3513 49.3336 46.0929 49.516 45.7381C49.6985 45.3733 49.8099 44.897 49.8505 44.3091H50.2001C50.2001 44.9578 50.2052 45.505 50.2153 45.951C50.2255 46.3969 50.2407 46.7618 50.2609 47.0455C49.815 47.0253 49.3488 47.0101 48.8623 46.9999C48.386 46.9898 47.9097 46.9847 47.4333 46.9847C46.9266 46.9847 46.4097 46.9898 45.8827 46.9999C45.3557 47.0202 44.849 47.0405 44.3625 47.0607L48.7559 39.3836H47.0837C46.6377 39.3836 46.2628 39.4647 45.9587 39.6269C45.6648 39.789 45.4368 40.0525 45.2746 40.4174C45.1226 40.7721 45.0212 41.2434 44.9706 41.8312H44.6209C44.6209 41.1724 44.6159 40.6251 44.6057 40.1893C44.5956 39.7434 44.5804 39.3786 44.5601 39.0948C45.0061 39.115 45.4672 39.1303 45.9435 39.1404C46.43 39.1505 46.9114 39.1556 47.3877 39.1556C47.8945 39.1556 48.4113 39.1505 48.9384 39.1404C49.4654 39.1201 49.9721 39.0998 50.4586 39.0796Z" fill="#737373"/>
<path d="M55.1498 38.9428C56.0416 38.9428 56.7359 39.2164 57.2325 39.7637C57.7392 40.3008 57.9926 41.142 57.9926 42.2872H52.6262L52.611 41.9984H56.5332C56.5534 41.5018 56.5129 41.0457 56.4115 40.6302C56.3102 40.2045 56.148 39.865 55.9251 39.6117C55.7122 39.3583 55.4335 39.2316 55.089 39.2316C54.6228 39.2316 54.2072 39.4647 53.8424 39.9309C53.4877 40.3971 53.2748 41.1369 53.2039 42.1504L53.2495 42.2112C53.2292 42.3633 53.214 42.5305 53.2039 42.7129C53.1937 42.8953 53.1887 43.0778 53.1887 43.2602C53.1887 43.9494 53.3002 44.5422 53.5231 45.0388C53.7461 45.5355 54.0349 45.9155 54.3897 46.179C54.7545 46.4324 55.1295 46.5591 55.5146 46.5591C55.8187 46.5591 56.1075 46.5135 56.3811 46.4222C56.6548 46.3209 56.9082 46.1587 57.1413 45.9358C57.3744 45.7128 57.577 45.4138 57.7493 45.0388L58.0534 45.1605C57.9419 45.4949 57.7595 45.8192 57.5061 46.1334C57.2527 46.4476 56.9335 46.706 56.5484 46.9087C56.1632 47.1013 55.7173 47.1976 55.2106 47.1976C54.4809 47.1976 53.8525 47.0303 53.3255 46.6959C52.8086 46.3614 52.4083 45.9003 52.1245 45.3125C51.8509 44.7145 51.7141 44.0304 51.7141 43.2602C51.7141 42.3683 51.856 41.6031 52.1397 40.9647C52.4235 40.316 52.8238 39.8194 53.3407 39.4748C53.8576 39.1201 54.4606 38.9428 55.1498 38.9428Z" fill="#737373"/>
<path d="M63.8737 38.9428C64.1473 38.9428 64.3855 38.9985 64.5882 39.11C64.801 39.2215 64.9632 39.3684 65.0747 39.5508C65.1963 39.7231 65.2571 39.9208 65.2571 40.1437C65.2571 40.3971 65.176 40.6201 65.0139 40.8126C64.8618 41.0052 64.6541 41.1015 64.3906 41.1015C64.1777 41.1015 63.9902 41.0356 63.8281 40.9038C63.6659 40.762 63.5849 40.5643 63.5849 40.311C63.5849 40.1184 63.6355 39.9562 63.7369 39.8245C63.8484 39.6826 63.97 39.5711 64.1017 39.49C64.0308 39.3887 63.9244 39.338 63.7825 39.338C63.4683 39.338 63.1795 39.4343 62.916 39.6269C62.6525 39.8093 62.4295 40.0475 62.2471 40.3414C62.0646 40.6353 61.9227 40.9494 61.8214 41.2839C61.72 41.6082 61.6694 41.9123 61.6694 42.196V45.4189C61.6694 45.9155 61.8113 46.25 62.095 46.4222C62.3889 46.5844 62.7842 46.6655 63.2808 46.6655V46.9847C63.0477 46.9746 62.7183 46.9645 62.2927 46.9543C61.867 46.9341 61.416 46.9239 60.9397 46.9239C60.5951 46.9239 60.2505 46.9341 59.9059 46.9543C59.5715 46.9645 59.3181 46.9746 59.1458 46.9847V46.6655C59.5613 46.6655 59.8552 46.5895 60.0275 46.4374C60.21 46.2854 60.3012 45.9966 60.3012 45.5709V40.8126C60.3012 40.3566 60.2201 40.0221 60.0579 39.8093C59.8958 39.5863 59.5917 39.4748 59.1458 39.4748V39.1556C59.4701 39.186 59.7843 39.2012 60.0883 39.2012C60.3823 39.2012 60.661 39.186 60.9245 39.1556C61.1981 39.115 61.4464 39.0593 61.6694 38.9884V40.8886C61.7809 40.5947 61.9379 40.3008 62.1406 40.0069C62.3535 39.7029 62.6068 39.4495 62.9008 39.2468C63.1947 39.0441 63.519 38.9428 63.8737 38.9428Z" fill="#737373"/>
<path d="M67.6486 35.355C67.9121 35.355 68.1401 35.4513 68.3327 35.6439C68.5253 35.8364 68.6215 36.0645 68.6215 36.328C68.6215 36.5915 68.5253 36.8195 68.3327 37.0121C68.1401 37.2046 67.9121 37.3009 67.6486 37.3009C67.3851 37.3009 67.1571 37.2046 66.9645 37.0121C66.7719 36.8195 66.6757 36.5915 66.6757 36.328C66.6757 36.0645 66.7719 35.8364 66.9645 35.6439C67.1571 35.4513 67.3851 35.355 67.6486 35.355ZM68.4391 38.9884V45.5709C68.4391 45.9966 68.5253 46.2854 68.6975 46.4374C68.88 46.5895 69.179 46.6655 69.5945 46.6655V46.9847C69.4222 46.9746 69.1587 46.9645 68.804 46.9543C68.4594 46.9341 68.1097 46.9239 67.755 46.9239C67.4104 46.9239 67.0608 46.9341 66.7061 46.9543C66.3513 46.9645 66.0878 46.9746 65.9155 46.9847V46.6655C66.3311 46.6655 66.625 46.5895 66.7973 46.4374C66.9797 46.2854 67.0709 45.9966 67.0709 45.5709V40.8126C67.0709 40.3566 66.9898 40.0221 66.8277 39.8093C66.6655 39.5863 66.3615 39.4748 65.9155 39.4748V39.1556C66.2399 39.186 66.554 39.2012 66.8581 39.2012C67.152 39.2012 67.4307 39.186 67.6942 39.1556C67.9678 39.115 68.2161 39.0593 68.4391 38.9884Z" fill="#737373"/>
<path d="M72.528 47.0911C72.1125 47.0911 71.7527 47.0151 71.4487 46.8631C71.1446 46.701 70.9115 46.478 70.7494 46.1942C70.5974 45.9104 70.5213 45.5811 70.5213 45.2061C70.5213 44.7601 70.6227 44.3953 70.8254 44.1115C71.0382 43.8277 71.3068 43.5997 71.6311 43.4274C71.9554 43.2551 72.2949 43.1132 72.6497 43.0017C73.0145 42.8801 73.3591 42.7686 73.6834 42.6673C74.0077 42.5558 74.2712 42.4291 74.4739 42.2872C74.6867 42.1454 74.7932 41.9579 74.7932 41.7248V40.7822C74.7932 40.3566 74.7273 40.0322 74.5955 39.8093C74.4739 39.5863 74.3067 39.4394 74.0939 39.3684C73.881 39.2873 73.6429 39.2468 73.3794 39.2468C73.126 39.2468 72.8523 39.2823 72.5584 39.3532C72.2747 39.4242 72.0466 39.5711 71.8743 39.7941C72.0669 39.8346 72.2341 39.936 72.376 40.0981C72.5179 40.2603 72.5888 40.468 72.5888 40.7214C72.5888 40.9748 72.5078 41.1775 72.3456 41.3295C72.1834 41.4714 71.9757 41.5423 71.7223 41.5423C71.4284 41.5423 71.2105 41.4511 71.0686 41.2687C70.9369 41.0761 70.871 40.8633 70.871 40.6302C70.871 40.3667 70.9369 40.1539 71.0686 39.9917C71.2004 39.8296 71.3676 39.6775 71.5703 39.5356C71.8034 39.3735 72.1024 39.2367 72.4672 39.1252C72.8422 39.0036 73.2628 38.9428 73.729 38.9428C74.1445 38.9428 74.4993 38.9934 74.7932 39.0948C75.0871 39.186 75.3303 39.3228 75.5229 39.5052C75.7864 39.7485 75.9587 40.0475 76.0397 40.4022C76.1208 40.7468 76.1614 41.1623 76.1614 41.6488V45.875C76.1614 46.1283 76.1968 46.3108 76.2678 46.4222C76.3489 46.5337 76.4705 46.5895 76.6326 46.5895C76.7441 46.5895 76.8505 46.5641 76.9519 46.5135C77.0532 46.4628 77.1748 46.3817 77.3167 46.2702L77.484 46.5287C77.2711 46.6908 77.0684 46.8276 76.8759 46.9391C76.6833 47.0405 76.4249 47.0911 76.1006 47.0911C75.8066 47.0911 75.5634 47.0405 75.3708 46.9391C75.1783 46.8378 75.0313 46.6908 74.93 46.4983C74.8388 46.2956 74.7932 46.0422 74.7932 45.7381C74.5195 46.1942 74.1901 46.5337 73.805 46.7567C73.43 46.9797 73.0044 47.0911 72.528 47.0911ZM73.0753 46.4831C73.4098 46.4831 73.7189 46.3868 74.0026 46.1942C74.2966 46.0017 74.5601 45.7128 74.7932 45.3277V42.3481C74.6715 42.5203 74.4942 42.6673 74.2611 42.7889C74.028 42.9004 73.7746 43.017 73.501 43.1386C73.2273 43.2501 72.9638 43.3869 72.7105 43.549C72.4672 43.7011 72.2645 43.9037 72.1024 44.1571C71.9402 44.4105 71.8591 44.7399 71.8591 45.1453C71.8591 45.5507 71.9656 45.875 72.1784 46.1182C72.4013 46.3614 72.7003 46.4831 73.0753 46.4831Z" fill="#737373"/>
<path d="M88.4653 35.0662V45.3277C88.4653 45.7838 88.5464 46.1233 88.7085 46.3462C88.8808 46.5591 89.1849 46.6655 89.6207 46.6655V46.9847C89.3065 46.9543 88.9923 46.9391 88.6781 46.9391C88.3842 46.9391 88.1004 46.9543 87.8268 46.9847C87.5633 47.0151 87.3201 47.0709 87.0971 47.152V36.8905C87.0971 36.4344 87.016 36.0999 86.8539 35.8871C86.6917 35.6641 86.3877 35.5527 85.9417 35.5527V35.2334C86.266 35.2638 86.5802 35.279 86.8843 35.279C87.1782 35.279 87.4569 35.2638 87.7204 35.2334C87.994 35.1929 88.2423 35.1371 88.4653 35.0662ZM85.2728 38.9428C85.7188 38.9428 86.1343 39.0492 86.5194 39.262C86.9147 39.4748 87.1782 39.8397 87.3099 40.3566L87.1123 40.5086C86.9704 40.0829 86.7474 39.7738 86.4434 39.5813C86.1495 39.3887 85.7998 39.2924 85.3944 39.2924C84.7965 39.2924 84.2948 39.6015 83.8894 40.2197C83.4942 40.838 83.3016 41.7906 83.3117 43.0778C83.3117 43.8987 83.3878 44.5828 83.5398 45.1301C83.7019 45.6672 83.935 46.0726 84.2391 46.3462C84.5533 46.6097 84.9333 46.7415 85.3792 46.7415C85.8049 46.7415 86.19 46.5591 86.5346 46.1942C86.8792 45.8294 87.087 45.2922 87.1579 44.5828L87.3403 44.7956C87.2593 45.5659 87.0109 46.1587 86.5954 46.5743C86.19 46.9898 85.6377 47.1976 84.9384 47.1976C84.31 47.1976 83.7577 47.0455 83.2813 46.7415C82.8151 46.4374 82.4554 45.9814 82.202 45.3733C81.9587 44.7652 81.8371 44 81.8371 43.0778C81.8371 42.1555 81.9942 41.3903 82.3084 40.7822C82.6327 40.164 83.0533 39.7029 83.5702 39.3988C84.0972 39.0948 84.6647 38.9428 85.2728 38.9428Z" fill="#737373"/>
<path d="M94.0757 38.9428C94.9676 38.9428 95.6618 39.2164 96.1584 39.7637C96.6652 40.3008 96.9186 41.142 96.9186 42.2872H91.5522L91.537 41.9984H95.4591C95.4794 41.5018 95.4389 41.0457 95.3375 40.6302C95.2362 40.2045 95.074 39.865 94.8511 39.6117C94.6382 39.3583 94.3595 39.2316 94.0149 39.2316C93.5487 39.2316 93.1332 39.4647 92.7684 39.9309C92.4136 40.3971 92.2008 41.1369 92.1299 42.1504L92.1755 42.2112C92.1552 42.3633 92.14 42.5305 92.1299 42.7129C92.1197 42.8953 92.1147 43.0778 92.1147 43.2602C92.1147 43.9494 92.2261 44.5422 92.4491 45.0388C92.6721 45.5355 92.9609 45.9155 93.3156 46.179C93.6805 46.4324 94.0555 46.5591 94.4406 46.5591C94.7446 46.5591 95.0335 46.5135 95.3071 46.4222C95.5808 46.3209 95.8341 46.1587 96.0672 45.9358C96.3003 45.7128 96.503 45.4138 96.6753 45.0388L96.9794 45.1605C96.8679 45.4949 96.6855 45.8192 96.4321 46.1334C96.1787 46.4476 95.8595 46.706 95.4743 46.9087C95.0892 47.1013 94.6433 47.1976 94.1366 47.1976C93.4068 47.1976 92.7785 47.0303 92.2515 46.6959C91.7346 46.3614 91.3343 45.9003 91.0505 45.3125C90.7769 44.7145 90.64 44.0304 90.64 43.2602C90.64 42.3683 90.7819 41.6031 91.0657 40.9647C91.3495 40.316 91.7498 39.8194 92.2667 39.4748C92.7836 39.1201 93.3866 38.9428 94.0757 38.9428Z" fill="#737373"/>
<path d="M100.489 35.0662V45.5709C100.489 45.9966 100.575 46.2854 100.747 46.4374C100.93 46.5895 101.229 46.6655 101.644 46.6655V46.9847C101.472 46.9746 101.209 46.9645 100.854 46.9543C100.509 46.9341 100.16 46.9239 99.8048 46.9239C99.4603 46.9239 99.1106 46.9341 98.7559 46.9543C98.4012 46.9645 98.1377 46.9746 97.9654 46.9847V46.6655C98.3809 46.6655 98.6748 46.5895 98.8471 46.4374C99.0295 46.2854 99.1207 45.9966 99.1207 45.5709V36.8905C99.1207 36.4344 99.0397 36.0999 98.8775 35.8871C98.7154 35.6641 98.4113 35.5527 97.9654 35.5527V35.2334C98.2897 35.2638 98.6039 35.279 98.9079 35.279C99.2018 35.279 99.4805 35.2638 99.744 35.2334C100.018 35.1929 100.266 35.1371 100.489 35.0662Z" fill="#737373"/>
<path d="M111.407 36.0087C112.075 36.0087 112.623 36.1101 113.048 36.3128C113.484 36.5053 113.869 36.7334 114.204 36.9969C114.406 37.1489 114.558 37.1692 114.66 37.0577C114.771 36.9361 114.847 36.6574 114.888 36.2216H115.237C115.217 36.5965 115.202 37.0526 115.192 37.5898C115.182 38.1269 115.177 38.8363 115.177 39.7181H114.827C114.756 39.2823 114.69 38.9377 114.629 38.6843C114.569 38.4208 114.493 38.1978 114.401 38.0154C114.32 37.833 114.209 37.6506 114.067 37.4681C113.753 37.0526 113.357 36.7536 112.881 36.5712C112.405 36.3787 111.903 36.2824 111.376 36.2824C110.879 36.2824 110.428 36.4091 110.023 36.6624C109.628 36.9057 109.283 37.2604 108.989 37.7266C108.706 38.1928 108.483 38.7553 108.32 39.414C108.168 40.0728 108.092 40.8126 108.092 41.6335C108.092 42.4849 108.179 43.2399 108.351 43.8987C108.523 44.5473 108.761 45.0946 109.065 45.5405C109.38 45.9865 109.744 46.326 110.16 46.5591C110.586 46.782 111.042 46.8935 111.528 46.8935C111.984 46.8935 112.461 46.8023 112.957 46.6199C113.454 46.4374 113.844 46.1435 114.128 45.7381C114.351 45.4442 114.503 45.125 114.584 44.7804C114.675 44.4358 114.756 43.9544 114.827 43.3362H115.177C115.177 44.2585 115.182 45.0034 115.192 45.5709C115.202 46.1283 115.217 46.5996 115.237 46.9847H114.888C114.847 46.5489 114.776 46.2753 114.675 46.1638C114.584 46.0523 114.427 46.0675 114.204 46.2094C113.829 46.4729 113.428 46.706 113.003 46.9087C112.587 47.1013 112.05 47.1976 111.391 47.1976C110.428 47.1976 109.582 46.9797 108.853 46.5439C108.133 46.1081 107.57 45.4797 107.165 44.6588C106.77 43.8379 106.572 42.8497 106.572 41.6944C106.572 40.5593 106.78 39.566 107.195 38.7147C107.611 37.8634 108.179 37.1996 108.898 36.7232C109.628 36.2469 110.464 36.0087 111.407 36.0087Z" fill="#737373"/>
<path d="M119.06 35.0814V40.767C119.324 40.0779 119.689 39.6015 120.155 39.338C120.631 39.0745 121.128 38.9428 121.645 38.9428C122.03 38.9428 122.349 38.9934 122.603 39.0948C122.866 39.1961 123.084 39.338 123.256 39.5204C123.449 39.7231 123.586 39.9765 123.667 40.2806C123.748 40.5846 123.788 40.9951 123.788 41.5119V45.5709C123.788 45.9966 123.874 46.2854 124.047 46.4374C124.229 46.5895 124.528 46.6655 124.944 46.6655V46.9847C124.771 46.9746 124.508 46.9645 124.153 46.9543C123.798 46.9341 123.454 46.9239 123.119 46.9239C122.785 46.9239 122.456 46.9341 122.131 46.9543C121.817 46.9645 121.579 46.9746 121.417 46.9847V46.6655C121.782 46.6655 122.04 46.5895 122.192 46.4374C122.344 46.2854 122.42 45.9966 122.42 45.5709V41.1775C122.42 40.8633 122.395 40.5745 122.344 40.311C122.293 40.0475 122.177 39.8346 121.994 39.6725C121.822 39.5103 121.554 39.4292 121.189 39.4292C120.773 39.4292 120.403 39.5458 120.079 39.7789C119.765 40.012 119.517 40.3363 119.334 40.7518C119.152 41.1673 119.06 41.6437 119.06 42.1808V45.5709C119.06 45.9966 119.136 46.2854 119.288 46.4374C119.441 46.5895 119.699 46.6655 120.064 46.6655V46.9847C119.902 46.9746 119.658 46.9645 119.334 46.9543C119.02 46.9341 118.696 46.9239 118.361 46.9239C118.027 46.9239 117.682 46.9341 117.327 46.9543C116.973 46.9645 116.709 46.9746 116.537 46.9847V46.6655C116.952 46.6655 117.246 46.5895 117.419 46.4374C117.601 46.2854 117.692 45.9966 117.692 45.5709V36.9057C117.692 36.4496 117.611 36.1151 117.449 35.9023C117.287 35.6793 116.983 35.5679 116.537 35.5679V35.2486C116.861 35.279 117.175 35.2942 117.479 35.2942C117.773 35.2942 118.052 35.279 118.316 35.2486C118.589 35.2081 118.837 35.1523 119.06 35.0814Z" fill="#737373"/>
<path d="M129.305 38.9428C130.197 38.9428 130.891 39.2164 131.388 39.7637C131.895 40.3008 132.148 41.142 132.148 42.2872H126.782L126.766 41.9984H130.688C130.709 41.5018 130.668 41.0457 130.567 40.6302C130.466 40.2045 130.303 39.865 130.08 39.6117C129.868 39.3583 129.589 39.2316 129.244 39.2316C128.778 39.2316 128.363 39.4647 127.998 39.9309C127.643 40.3971 127.43 41.1369 127.359 42.1504L127.405 42.2112C127.385 42.3633 127.369 42.5305 127.359 42.7129C127.349 42.8953 127.344 43.0778 127.344 43.2602C127.344 43.9494 127.455 44.5422 127.678 45.0388C127.901 45.5355 128.19 45.9155 128.545 46.179C128.91 46.4324 129.285 46.5591 129.67 46.5591C129.974 46.5591 130.263 46.5135 130.536 46.4222C130.81 46.3209 131.063 46.1587 131.297 45.9358C131.53 45.7128 131.732 45.4138 131.905 45.0388L132.209 45.1605C132.097 45.4949 131.915 45.8192 131.661 46.1334C131.408 46.4476 131.089 46.706 130.704 46.9087C130.319 47.1013 129.873 47.1976 129.366 47.1976C128.636 47.1976 128.008 47.0303 127.481 46.6959C126.964 46.3614 126.564 45.9003 126.28 45.3125C126.006 44.7145 125.869 44.0304 125.869 43.2602C125.869 42.3683 126.011 41.6031 126.295 40.9647C126.579 40.316 126.979 39.8194 127.496 39.4748C128.013 39.1201 128.616 38.9428 129.305 38.9428Z" fill="#737373"/>
<path d="M137.056 35.0966C137.34 35.0966 137.588 35.1371 137.801 35.2182C138.024 35.2892 138.217 35.3854 138.379 35.5071C138.531 35.6287 138.647 35.7706 138.728 35.9327C138.809 36.0949 138.85 36.2672 138.85 36.4496C138.85 36.6827 138.774 36.8753 138.622 37.0273C138.47 37.1793 138.277 37.2553 138.044 37.2553C137.821 37.2553 137.624 37.1844 137.451 37.0425C137.289 36.8905 137.208 36.6878 137.208 36.4344C137.208 36.2216 137.264 36.0493 137.375 35.9175C137.497 35.7858 137.654 35.6996 137.847 35.6591C137.816 35.5679 137.735 35.4919 137.603 35.431C137.482 35.3601 137.315 35.3246 137.102 35.3246C136.869 35.3246 136.666 35.3753 136.494 35.4767C136.331 35.578 136.205 35.7148 136.114 35.8871C135.992 36.0999 135.916 36.4192 135.886 36.8449C135.855 37.2604 135.84 37.9039 135.84 38.7755V39.1708H137.467V39.4748H135.84V45.4189C135.84 45.9155 135.982 46.25 136.266 46.4222C136.559 46.5844 136.955 46.6655 137.451 46.6655V46.9847C137.218 46.9746 136.889 46.9645 136.463 46.9543C136.038 46.9341 135.587 46.9239 135.11 46.9239C134.766 46.9239 134.421 46.9341 134.076 46.9543C133.742 46.9645 133.489 46.9746 133.316 46.9847V46.6655C133.732 46.6655 134.026 46.5895 134.198 46.4374C134.38 46.2854 134.472 45.9966 134.472 45.5709V39.4748H133.256V39.1708H134.472C134.472 38.5728 134.497 38.0712 134.548 37.6658C134.598 37.2604 134.679 36.9158 134.791 36.632C134.902 36.3381 135.054 36.0797 135.247 35.8567C135.45 35.6236 135.708 35.4412 136.022 35.3094C136.337 35.1675 136.681 35.0966 137.056 35.0966Z" fill="#737373"/>
<path d="M83.6579 3.56973C87.5385 5.8349 90.7655 9.07099 93.0228 12.9611C95.2802 16.8512 96.4904 21.2621 96.5352 25.7616H94.5286C94.4855 21.6164 93.3695 17.5532 91.2897 13.9695C89.2099 10.3858 86.2375 7.40413 82.6631 5.31612L83.6579 3.56973Z" fill="#737373"/>
<path d="M58.1881 5.37576C54.6397 7.5063 51.6972 10.5144 49.6426 14.1117C47.5879 17.709 46.4901 21.7748 46.4544 25.9192H44.4435C44.4834 21.4206 45.6775 17.0078 47.9111 13.105C50.1446 9.20221 53.3426 5.9406 57.1975 3.63364L58.1881 5.37576Z" fill="#737373"/>
<path d="M57.6184 3.38659C61.5244 1.17671 65.932 0.010514 70.4178 7.07611e-05C74.9035 -0.0103725 79.3165 1.13529 83.2327 3.32696L82.2379 5.07334C78.6255 3.05365 74.5557 1.99765 70.4189 2.00661C66.2821 2.01556 62.2169 3.08915 58.6132 5.12446L57.6184 3.38659Z" fill="#737373"/>
<path d="M58.8726 5.55468C62.401 3.56608 66.3796 2.51756 70.428 2.50936C74.4764 2.50115 78.4592 3.53354 81.9956 5.50782L70.4787 25.5955L58.8726 5.55468Z" fill="#737373"/>
<path d="M82.4292 5.75482C85.9287 7.79995 88.8388 10.7196 90.8753 14.2285C92.9118 17.7374 94.005 21.7156 94.0482 25.7744L70.9336 25.8425L82.4292 5.75482Z" fill="#737373"/>
<path d="M70.0536 25.8468L46.9433 25.915C46.9791 21.8597 48.0534 17.8815 50.0632 14.3614C52.073 10.8412 54.9511 7.89683 58.4219 5.81021L70.0536 25.8468Z" fill="#737373"/>
<path d="M79.5001 22.9972C79.6088 23.3596 79.8223 23.6816 80.1137 23.9223C80.4051 24.1631 80.7612 24.3118 81.137 24.3497C81.5128 24.3876 81.8913 24.3129 82.2248 24.1352C82.5582 23.9574 82.8315 23.6846 83.0101 23.3512C83.1887 23.0177 83.2645 22.6387 83.2281 22.2621C83.1916 21.8855 83.0444 21.5281 82.8052 21.2353C82.5659 20.9425 82.2454 20.7274 81.8841 20.6172C81.5228 20.507 81.137 20.5066 80.7755 20.6162C80.5352 20.6878 80.3114 20.8064 80.1171 20.9651C79.9227 21.1238 79.7616 21.3194 79.6431 21.5407C79.5245 21.762 79.4509 22.0047 79.4263 22.2547C79.4018 22.5046 79.4268 22.757 79.5001 22.9972Z" fill="#F5F1E9"/>
<path d="M80.8009 14.8105C80.9099 15.1738 81.124 15.4966 81.4162 15.738C81.7084 15.9793 82.0654 16.1283 82.4422 16.1662C82.819 16.2041 83.1985 16.129 83.5327 15.9507C83.8669 15.7723 84.1407 15.4985 84.3195 15.1641C84.4983 14.8297 84.5741 14.4497 84.5371 14.0721C84.5002 13.6945 84.3523 13.3364 84.1121 13.0431C83.8719 12.7498 83.5502 12.5346 83.1878 12.4246C82.8254 12.3146 82.4386 12.3148 82.0763 12.4252C81.8362 12.4978 81.6127 12.6171 81.4186 12.7763C81.2245 12.9355 81.0637 13.1315 80.9452 13.353C80.8268 13.5745 80.7531 13.8173 80.7283 14.0674C80.7036 14.3175 80.7282 14.57 80.8009 14.8105Z" fill="#F5F1E9"/>
<path d="M69.1013 18.3459C69.2114 18.7074 69.426 19.0281 69.7178 19.2675C70.0097 19.5069 70.3659 19.6543 70.7413 19.691C71.1168 19.7278 71.4947 19.6523 71.8273 19.474C72.1599 19.2958 72.4324 19.0228 72.6103 18.6895C72.7882 18.3562 72.8635 17.9776 72.8268 17.6014C72.7901 17.2252 72.6429 16.8684 72.4039 16.576C72.165 16.2836 71.8449 16.0686 71.4841 15.9583C71.1232 15.848 70.7379 15.8473 70.3767 15.9563C70.1358 16.0284 69.9115 16.1476 69.7168 16.3069C69.522 16.4663 69.3607 16.6627 69.2422 16.8849C69.1236 17.107 69.0501 17.3505 69.0259 17.6013C69.0017 17.852 69.0274 18.1051 69.1013 18.3459Z" fill="#F5F1E9"/>
<path d="M65.0965 9.69064C65.2055 10.054 65.4196 10.3768 65.7118 10.6181C66.0039 10.8594 66.361 11.0085 66.7378 11.0463C67.1145 11.0842 67.494 11.0092 67.8282 10.8308C68.1624 10.6524 68.4363 10.3787 68.6151 10.0443C68.7939 9.70984 68.8696 9.32978 68.8327 8.9522C68.7958 8.57463 68.6478 8.21652 68.4076 7.92324C68.1674 7.62996 67.8458 7.41468 67.4834 7.30469C67.121 7.19469 66.7342 7.19491 66.3719 7.30533C65.8882 7.45392 65.4828 7.78801 65.2439 8.2348C65.005 8.6816 64.952 9.20489 65.0965 9.69064Z" fill="#F5F1E9"/>
<path d="M49.6471 22.2135C49.7558 22.5759 49.9694 22.8978 50.2608 23.1386C50.5522 23.3793 50.9083 23.5281 51.2841 23.566C51.6598 23.6038 52.0384 23.5292 52.3718 23.3514C52.7052 23.1737 52.9785 22.9009 53.1571 22.5674C53.3357 22.234 53.4116 21.855 53.3751 21.4784C53.3387 21.1017 53.1915 20.7444 52.9523 20.4516C52.713 20.1588 52.3925 19.9437 52.0312 19.8335C51.6698 19.7233 51.284 19.7229 50.9225 19.8325C50.4385 19.9792 50.0324 20.3123 49.7933 20.7587C49.5541 21.2051 49.5016 21.7283 49.6471 22.2135Z" fill="#F5F1E9"/>
<path d="M59.2466 20.0582C59.3561 20.4201 59.5701 20.7414 59.8618 20.9815C60.1534 21.2216 60.5095 21.3697 60.8851 21.407C61.2608 21.4443 61.639 21.3692 61.972 21.1912C62.305 21.0132 62.5779 20.7403 62.7562 20.4069C62.9344 20.0736 63.01 19.6948 62.9734 19.3184C62.9368 18.942 62.7897 18.5849 62.5505 18.2923C62.3114 17.9997 61.9911 17.7846 61.63 17.6744C61.269 17.5641 60.8834 17.5636 60.5221 17.6729C60.0377 17.8205 59.6315 18.1544 59.3925 18.6015C59.1534 19.0486 59.101 19.5724 59.2466 20.0582Z" fill="#F5F1E9"/>
</svg>
