<svg width="20" height="20" viewBox="0 0 20 20" fill="none" xmlns="http://www.w3.org/2000/svg">
<path d="M5.34167 7.5H14.6583C14.8231 7.50069 14.984 7.55024 15.1207 7.64237C15.2574 7.73451 15.3636 7.8651 15.4261 8.01762C15.4885 8.17015 15.5043 8.33777 15.4715 8.49928C15.4387 8.66079 15.3587 8.80894 15.2417 8.925L10.5917 13.575C10.5142 13.6531 10.422 13.7151 10.3205 13.7574C10.2189 13.7997 10.11 13.8215 10 13.8215C9.88999 13.8215 9.78107 13.7997 9.67952 13.7574C9.57797 13.7151 9.4858 13.6531 9.40833 13.575L4.75833 8.925C4.64131 8.80894 4.56134 8.66079 4.52852 8.49928C4.4957 8.33777 4.5115 8.17015 4.57394 8.01762C4.63638 7.8651 4.74264 7.73451 4.8793 7.64237C5.01595 7.55024 5.17685 7.50069 5.34167 7.5Z" fill="#B3411D"/>
</svg>
