<svg width="30" height="30" viewBox="0 0 30 30" fill="none" xmlns="http://www.w3.org/2000/svg">
<g clip-path="url(#clip0_26_58)">
<path d="M1.805 8.33625C1.38645 8.45584 1.00637 8.68265 0.70239 8.99423C0.398405 9.30581 0.181046 9.69136 0.0718182 10.1127C-0.0374091 10.5341 -0.034718 10.9767 0.0796253 11.3967C0.193969 11.8168 0.416001 12.1996 0.723752 12.5075L4.98875 16.7675V25H13.23L17.5238 29.2875C17.7542 29.5199 18.0283 29.7045 18.3304 29.8307C18.6324 29.9568 18.9564 30.022 19.2838 30.0225C19.4989 30.0221 19.7131 29.9944 19.9213 29.94C20.3425 29.8339 20.7283 29.6187 21.0399 29.3161C21.3515 29.0135 21.5779 28.6342 21.6963 28.2162L29.9888 0.0262451L1.805 8.33625ZM2.5 10.74L23.785 4.465L7.49125 20.7325V15.7325L2.5 10.74ZM19.3 27.52L14.2663 22.5H9.26625L25.5575 6.2225L19.3 27.52Z" fill="#FF3E3E"/>
</g>
<defs>
<clipPath id="clip0_26_58">
<rect width="30" height="30" fill="white"/>
</clipPath>
</defs>
</svg>
