<svg width="35" height="30" viewBox="0 0 35 30" fill="none" xmlns="http://www.w3.org/2000/svg">
<path d="M24.8931 0C23.2918 0.0249074 21.7254 0.471918 20.3521 1.29589C18.9788 2.11986 17.8472 3.29162 17.0717 4.69283C16.2962 3.29162 15.1646 2.11986 13.7913 1.29589C12.418 0.471918 10.8517 0.0249074 9.25033 0C6.69763 0.110908 4.29258 1.22761 2.56061 3.10613C0.82864 4.98465 -0.0894615 7.4723 0.00688438 10.0256C0.00688438 16.4917 6.81291 23.5537 12.5211 28.3418C13.7956 29.4128 15.407 30 17.0717 30C18.7364 30 20.3478 29.4128 21.6223 28.3418C27.3305 23.5537 34.1365 16.4917 34.1365 10.0256C34.2329 7.4723 33.3148 4.98465 31.5828 3.10613C29.8508 1.22761 27.4458 0.110908 24.8931 0ZM19.795 26.1661C19.0327 26.808 18.0682 27.16 17.0717 27.16C16.0752 27.16 15.1107 26.808 14.3484 26.1661C7.04186 20.0355 2.85102 14.1539 2.85102 10.0256C2.75381 8.22626 3.37202 6.4615 4.57082 5.11618C5.76962 3.77086 7.45175 2.95414 9.25033 2.84414C11.0489 2.95414 12.731 3.77086 13.9298 5.11618C15.1286 6.4615 15.7469 8.22626 15.6496 10.0256C15.6496 10.4027 15.7995 10.7645 16.0662 11.0311C16.3328 11.2978 16.6946 11.4477 17.0717 11.4477C17.4489 11.4477 17.8106 11.2978 18.0773 11.0311C18.344 10.7645 18.4938 10.4027 18.4938 10.0256C18.3966 8.22626 19.0148 6.4615 20.2136 5.11618C21.4124 3.77086 23.0945 2.95414 24.8931 2.84414C26.6917 2.95414 28.3738 3.77086 29.5726 5.11618C30.7714 6.4615 31.3896 8.22626 31.2924 10.0256C31.2924 14.1539 27.1016 20.0355 19.795 26.1604V26.1661Z" fill="#FF3E3E"/>
</svg>
