<svg width="16" height="16" viewBox="0 0 16 16" fill="none" xmlns="http://www.w3.org/2000/svg">
<path d="M12.714 11.4753C13.9651 10.2098 14.6668 8.50195 14.6668 6.72235C14.6668 4.94275 13.9651 3.23491 12.714 1.96935C12.0976 1.3455 11.3636 0.850196 10.5544 0.512148C9.74521 0.1741 8.87697 3.05176e-05 8 3.05176e-05C7.12303 3.05176e-05 6.25479 0.1741 5.44559 0.512148C4.6364 0.850196 3.90235 1.3455 3.286 1.96935C2.03196 3.23783 1.33009 4.95053 1.33334 6.73425C1.33659 8.51797 2.04469 10.2281 3.30333 11.492L5.69267 13.718C6.30457 14.323 7.12972 14.6633 7.99021 14.6656C8.8507 14.6678 9.67761 14.3318 10.2927 13.73L12.714 11.4753ZM8.89467 9.76601C8.61664 9.90369 8.31058 9.97532 8.00033 9.97532C7.69009 9.97532 7.38403 9.90369 7.106 9.76601L5.77267 9.09935C5.43962 8.93413 5.15949 8.67894 4.96402 8.3627C4.76855 8.04646 4.66554 7.68179 4.66667 7.31001V5.33335C4.66535 4.96153 4.7682 4.59677 4.96356 4.2804C5.15892 3.96404 5.43897 3.70871 5.772 3.54335L7.10533 2.87668C7.38323 2.73856 7.68934 2.66668 7.99967 2.66668C8.31 2.66668 8.61611 2.73856 8.894 2.87668L10.2273 3.54335C10.5605 3.70862 10.8407 3.96391 11.0362 4.28028C11.2316 4.59665 11.3346 4.96146 11.3333 5.33335V7.31068C11.3345 7.68239 11.2316 8.047 11.0363 8.36324C10.8409 8.67948 10.5609 8.9347 10.228 9.10001L8.89467 9.76601ZM9.966 5.12935C9.98788 5.19516 9.99935 5.26399 10 5.33335V7.31068C10.0005 7.43467 9.96625 7.55631 9.90108 7.66179C9.83591 7.76726 9.74245 7.85234 9.63133 7.90735L8.298 8.57401C8.20529 8.62006 8.10318 8.64402 7.99967 8.64402C7.89615 8.64402 7.79404 8.62006 7.70133 8.57401L6.368 7.90735C6.25691 7.8522 6.16352 7.76698 6.09846 7.66138C6.03341 7.55578 5.99929 7.43404 6 7.31001V5.33335C6.00106 5.26534 6.01253 5.19789 6.034 5.13335L7.48733 5.86001C7.64652 5.93958 7.82204 5.981 8 5.981C8.17796 5.981 8.35348 5.93958 8.51267 5.86001L9.966 5.12935ZM13.3333 15.3333C13.3333 15.5102 13.2631 15.6797 13.1381 15.8048C13.013 15.9298 12.8435 16 12.6667 16H3.33333C3.15652 16 2.98695 15.9298 2.86193 15.8048C2.7369 15.6797 2.66667 15.5102 2.66667 15.3333C2.66667 15.1565 2.7369 14.987 2.86193 14.8619C2.98695 14.7369 3.15652 14.6667 3.33333 14.6667H12.6667C12.8435 14.6667 13.013 14.7369 13.1381 14.8619C13.2631 14.987 13.3333 15.1565 13.3333 15.3333Z" fill="#5F3527"/>
</svg>
