<svg width="16" height="16" viewBox="0 0 16 16" fill="none" xmlns="http://www.w3.org/2000/svg">
<g clip-path="url(#clip0_60_53)">
<path d="M14.6667 6.66667C14.6368 7.93363 14.3216 9.17755 13.7445 10.3058C13.1674 11.4341 12.3432 12.4177 11.3333 13.1833V15.3333C11.3333 15.5101 11.2631 15.6797 11.1381 15.8047C11.013 15.9298 10.8435 16 10.6667 16C10.4899 16 10.3203 15.9298 10.1953 15.8047C10.0702 15.6797 9.99999 15.5101 9.99999 15.3333V1.33333C9.99402 1.08284 10.0625 0.836205 10.1967 0.624619C10.3309 0.413034 10.5248 0.246007 10.754 0.144667C11.0172 0.0375768 11.3059 0.00948677 11.5849 0.0638294C11.8638 0.118172 12.1209 0.252594 12.3247 0.450667C13.8709 2.1473 14.7089 4.37153 14.6667 6.66667ZM7.33333 0C7.15652 0 6.98695 0.0702379 6.86192 0.195262C6.7369 0.320286 6.66666 0.489856 6.66666 0.666667V4.66667C6.66495 5.07884 6.53594 5.48042 6.29727 5.81647C6.0586 6.15251 5.72193 6.40661 5.33333 6.544V0.666667C5.33333 0.489856 5.26309 0.320286 5.13807 0.195262C5.01304 0.0702379 4.84347 0 4.66666 0C4.48985 0 4.32028 0.0702379 4.19526 0.195262C4.07023 0.320286 3.99999 0.489856 3.99999 0.666667V6.544C3.61139 6.40661 3.27472 6.15251 3.03605 5.81647C2.79738 5.48042 2.66837 5.07884 2.66666 4.66667V0.666667C2.66666 0.489856 2.59642 0.320286 2.4714 0.195262C2.34638 0.0702379 2.17681 0 1.99999 0C1.82318 0 1.65361 0.0702379 1.52859 0.195262C1.40357 0.320286 1.33333 0.489856 1.33333 0.666667V4.66667C1.3343 5.4348 1.60006 6.17912 2.08581 6.77417C2.57156 7.36921 3.2476 7.7786 3.99999 7.93333V15.3333C3.99999 15.5101 4.07023 15.6797 4.19526 15.8047C4.32028 15.9298 4.48985 16 4.66666 16C4.84347 16 5.01304 15.9298 5.13807 15.8047C5.26309 15.6797 5.33333 15.5101 5.33333 15.3333V7.93333C6.08572 7.7786 6.76176 7.36921 7.24752 6.77417C7.73327 6.17912 7.99902 5.4348 7.99999 4.66667V0.666667C7.99999 0.489856 7.92976 0.320286 7.80473 0.195262C7.67971 0.0702379 7.51014 0 7.33333 0Z" fill="#5F3527"/>
</g>
<defs>
<clipPath id="clip0_60_53">
<rect width="16" height="16" fill="white"/>
</clipPath>
</defs>
</svg>
