<svg width="30" height="30" viewBox="0 0 30 30" fill="none" xmlns="http://www.w3.org/2000/svg">
<g clip-path="url(#clip0_26_61)">
<path d="M25.1713 30C24.7088 29.9987 24.2512 29.9058 23.8249 29.7267C23.3986 29.5475 23.012 29.2857 22.6875 28.9563L15 21.3138L7.3125 28.9613C6.81879 29.4622 6.18561 29.8027 5.49552 29.9385C4.80543 30.0743 4.09044 29.999 3.44375 29.7225C2.79065 29.4598 2.23193 29.0063 1.84057 28.4211C1.44922 27.836 1.2434 27.1464 1.25 26.4425V6.25C1.25 4.5924 1.90848 3.00269 3.08058 1.83058C4.25269 0.65848 5.8424 0 7.5 0L22.5 0C23.3208 0 24.1335 0.161661 24.8918 0.475753C25.6501 0.789845 26.3391 1.25022 26.9194 1.83058C27.4998 2.41095 27.9602 3.09994 28.2743 3.85823C28.5883 4.61651 28.75 5.42924 28.75 6.25V26.4425C28.757 27.1459 28.5519 27.835 28.1615 28.4201C27.7711 29.0052 27.2134 29.459 26.5613 29.7225C26.121 29.9066 25.6484 30.001 25.1713 30ZM7.5 2.5C6.50544 2.5 5.55161 2.89509 4.84835 3.59835C4.14509 4.30161 3.75 5.25544 3.75 6.25V26.4425C3.74955 26.6508 3.81084 26.8545 3.92613 27.028C4.04141 27.2015 4.20553 27.3369 4.39774 27.4172C4.58995 27.4974 4.80164 27.5189 5.00605 27.4789C5.21047 27.4389 5.39845 27.3393 5.54625 27.1925L14.125 18.6663C14.3592 18.4334 14.676 18.3028 15.0063 18.3028C15.3365 18.3028 15.6533 18.4334 15.8875 18.6663L24.4563 27.19C24.6041 27.3368 24.792 27.4364 24.9965 27.4764C25.2009 27.5164 25.4126 27.4949 25.6048 27.4147C25.797 27.3344 25.9611 27.199 26.0764 27.0255C26.1917 26.852 26.253 26.6483 26.2525 26.44V6.25C26.2525 5.25544 25.8574 4.30161 25.1542 3.59835C24.4509 2.89509 23.4971 2.5 22.5025 2.5H7.5Z" fill="#FF3E3E"/>
</g>
<defs>
<clipPath id="clip0_26_61">
<rect width="30" height="30" fill="white"/>
</clipPath>
</defs>
</svg>
